<svg width="880" height="137" viewBox="0 0 880 137" fill="none" xmlns="http://www.w3.org/2000/svg">
<path d="M0.679443 6.05853H52.8669C59.2419 6.05853 64.7836 6.74603 69.4919 8.12103C74.2419 9.45437 78.1794 11.3085 81.3044 13.6835C84.4294 16.0585 86.7419 18.8919 88.2419 22.1835C89.7836 25.4335 90.5544 28.9544 90.5544 32.746C90.5544 38.9544 88.5961 44.3919 84.6794 49.0585C89.1794 51.7252 92.5336 55.1835 94.7419 59.4335C96.9503 63.6835 98.0544 68.5169 98.0544 73.9335C98.0544 78.4752 97.2836 82.5794 95.7419 86.246C94.2419 89.9127 91.9294 93.0585 88.8044 95.6835C85.7211 98.2669 81.8044 100.267 77.0544 101.684C72.3461 103.059 66.7836 103.746 60.3669 103.746H0.679443V6.05853ZM60.4919 43.5585C62.2003 43.5585 63.8669 43.621 65.4919 43.746C68.2836 41.0794 69.6794 38.0377 69.6794 34.621C69.6794 31.0794 68.2836 28.3502 65.4919 26.4335C62.7419 24.4752 58.7003 23.496 53.3669 23.496H20.4919V43.5585H60.4919ZM60.8669 86.496C66.2003 86.496 70.2419 85.3502 72.9919 83.0585C75.7836 80.7669 77.1794 77.5377 77.1794 73.371C77.1794 69.2044 75.7836 65.9544 72.9919 63.621C70.2419 61.2877 66.2003 60.121 60.8669 60.121H20.4919V86.496H60.8669ZM112.367 80.496C112.367 76.9544 113.138 73.7252 114.679 70.8085C116.221 67.8919 118.534 65.3919 121.617 63.3085C124.7 61.1835 128.534 59.5585 133.117 58.4335C137.742 57.2669 143.117 56.6835 149.242 56.6835C153.784 56.6835 158.554 57.0169 163.554 57.6835C168.596 58.3502 173.784 59.371 179.117 60.746C178.909 58.4127 178.2 56.2669 176.992 54.3085C175.784 52.3085 174.096 50.6002 171.929 49.1835C169.804 47.7252 167.221 46.6002 164.179 45.8085C161.179 45.0169 157.763 44.621 153.929 44.621C151.846 44.621 149.554 44.746 147.054 44.996C144.554 45.246 141.971 45.621 139.304 46.121C136.638 46.621 133.992 47.246 131.367 47.996C128.784 48.746 126.367 49.6419 124.117 50.6835L118.492 35.496C121.284 34.496 124.263 33.5794 127.429 32.746C130.638 31.9127 133.909 31.2044 137.242 30.621C140.575 29.996 143.909 29.5169 147.242 29.1835C150.575 28.8502 153.804 28.6835 156.929 28.6835C170.721 28.6835 180.971 32.2044 187.679 39.246C194.388 46.2877 197.742 57.0794 197.742 71.621V103.746H179.242V96.8085C177.325 97.9335 175.221 98.996 172.929 99.996C170.679 100.996 168.221 101.871 165.554 102.621C162.888 103.371 160.013 103.954 156.929 104.371C153.888 104.829 150.659 105.059 147.242 105.059C141.492 105.059 136.429 104.434 132.054 103.184C127.721 101.934 124.096 100.204 121.179 97.996C118.263 95.7877 116.054 93.2044 114.554 90.246C113.096 87.246 112.367 83.996 112.367 80.496ZM131.867 79.871C131.867 81.0794 132.179 82.246 132.804 83.371C133.429 84.4544 134.429 85.4335 135.804 86.3085C137.179 87.1419 138.929 87.8294 141.054 88.371C143.221 88.871 145.825 89.121 148.867 89.121C152.117 89.121 155.263 88.8294 158.304 88.246C161.346 87.6627 164.179 86.8919 166.804 85.9335C169.429 84.9752 171.804 83.871 173.929 82.621C176.054 81.371 177.825 80.0794 179.242 78.746V75.496C176.409 74.7044 173.596 74.0377 170.804 73.496C168.054 72.9544 165.409 72.5377 162.867 72.246C160.367 71.9127 157.992 71.6835 155.742 71.5585C153.534 71.4335 151.596 71.371 149.929 71.371C146.471 71.371 143.596 71.6002 141.304 72.0585C139.013 72.5169 137.159 73.1419 135.742 73.9335C134.325 74.6835 133.325 75.5794 132.742 76.621C132.159 77.6627 131.867 78.746 131.867 79.871ZM221.742 0.0585327H240.242V36.9335C241.867 35.8085 243.784 34.746 245.992 33.746C248.2 32.746 250.575 31.871 253.117 31.121C255.659 30.371 258.284 29.7877 260.992 29.371C263.7 28.9127 266.409 28.6835 269.117 28.6835C275.367 28.6835 281.096 29.6002 286.304 31.4335C291.554 33.2669 296.054 35.8502 299.804 39.1835C303.554 42.5169 306.471 46.5169 308.554 51.1835C310.679 55.8085 311.742 60.9335 311.742 66.5585C311.742 72.4335 310.638 77.746 308.429 82.496C306.221 87.2044 303.159 91.246 299.242 94.621C295.367 97.9544 290.742 100.538 285.367 102.371C280.034 104.163 274.242 105.059 267.992 105.059C265.325 105.059 262.679 104.892 260.054 104.559C257.471 104.225 254.971 103.767 252.554 103.184C250.179 102.6 247.929 101.913 245.804 101.121C243.721 100.288 241.867 99.3919 240.242 98.4335V103.746H221.742V0.0585327ZM240.242 80.5585C242.117 82.0585 244.096 83.3294 246.179 84.371C248.263 85.4127 250.388 86.2669 252.554 86.9335C254.721 87.6002 256.909 88.1002 259.117 88.4335C261.325 88.7252 263.471 88.871 265.554 88.871C269.804 88.871 273.575 88.3085 276.867 87.1835C280.2 86.0169 282.992 84.4335 285.242 82.4335C287.534 80.4335 289.284 78.0794 290.492 75.371C291.7 72.6627 292.304 69.7252 292.304 66.5585C292.304 63.6002 291.7 60.8085 290.492 58.1835C289.325 55.5585 287.617 53.2669 285.367 51.3085C283.159 49.3085 280.471 47.746 277.304 46.621C274.179 45.4544 270.659 44.871 266.742 44.871C264.242 44.871 261.742 45.121 259.242 45.621C256.742 46.0794 254.325 46.746 251.992 47.621C249.7 48.496 247.534 49.5585 245.492 50.8085C243.492 52.0585 241.742 53.4544 240.242 54.996V80.5585ZM337.679 112.996C339.596 114.246 341.679 115.35 343.929 116.309C346.179 117.267 348.513 118.059 350.929 118.684C353.388 119.309 355.888 119.767 358.429 120.059C360.971 120.392 363.492 120.559 365.992 120.559C374.492 120.559 381.034 118.725 385.617 115.059C390.242 111.434 392.554 105.975 392.554 98.6835V96.1835C390.929 97.3085 389.096 98.3502 387.054 99.3085C385.054 100.225 382.888 101.017 380.554 101.684C378.263 102.35 375.825 102.871 373.242 103.246C370.7 103.579 368.117 103.746 365.492 103.746C359.867 103.746 354.825 102.934 350.367 101.309C345.95 99.6419 342.2 97.2252 339.117 94.0585C336.075 90.8502 333.742 86.9127 332.117 82.246C330.492 77.5794 329.679 72.246 329.679 66.246V29.996H348.117V61.121C348.117 70.0377 349.804 76.621 353.179 80.871C356.596 85.0794 361.971 87.1835 369.304 87.1835C374.471 87.1835 379.034 86.2877 382.992 84.496C386.992 82.6627 390.179 80.3294 392.554 77.496V29.996H411.054V95.3085C411.054 102.35 410.054 108.454 408.054 113.621C406.054 118.829 403.138 123.142 399.304 126.559C395.513 129.975 390.846 132.517 385.304 134.184C379.763 135.892 373.471 136.746 366.429 136.746C359.554 136.746 353.138 136.017 347.179 134.559C341.221 133.1 335.763 131.121 330.804 128.621L337.679 112.996ZM509.742 79.5585L467.054 6.05853H489.492L519.554 61.621L549.242 6.05853H571.679L529.554 79.4335V103.746H509.742V79.5585ZM579.929 66.871C579.929 61.5794 580.992 56.621 583.117 51.996C585.284 47.371 588.346 43.3294 592.304 39.871C596.304 36.4127 601.117 33.6835 606.742 31.6835C612.409 29.6835 618.763 28.6835 625.804 28.6835C632.846 28.6835 639.179 29.6835 644.804 31.6835C650.471 33.6835 655.284 36.4127 659.242 39.871C663.242 43.3294 666.304 47.371 668.429 51.996C670.596 56.621 671.679 61.5794 671.679 66.871C671.679 72.1627 670.596 77.121 668.429 81.746C666.304 86.371 663.242 90.4127 659.242 93.871C655.284 97.3294 650.471 100.059 644.804 102.059C639.179 104.059 632.846 105.059 625.804 105.059C618.763 105.059 612.409 104.059 606.742 102.059C601.117 100.059 596.304 97.3294 592.304 93.871C588.346 90.4127 585.284 86.371 583.117 81.746C580.992 77.121 579.929 72.1627 579.929 66.871ZM599.367 66.871C599.367 69.8294 599.95 72.6419 601.117 75.3085C602.325 77.9335 604.054 80.2669 606.304 82.3085C608.596 84.3085 611.367 85.9127 614.617 87.121C617.909 88.2877 621.638 88.871 625.804 88.871C629.971 88.871 633.679 88.2877 636.929 87.121C640.221 85.9127 642.992 84.3085 645.242 82.3085C647.534 80.2669 649.263 77.9335 650.429 75.3085C651.638 72.6419 652.242 69.8294 652.242 66.871C652.242 63.9127 651.638 61.1002 650.429 58.4335C649.263 55.7669 647.534 53.4335 645.242 51.4335C642.992 49.3919 640.221 47.7877 636.929 46.621C633.679 45.4127 629.971 44.8085 625.804 44.8085C621.638 44.8085 617.909 45.4127 614.617 46.621C611.367 47.7877 608.596 49.3919 606.304 51.4335C604.054 53.4335 602.325 55.7669 601.117 58.4335C599.95 61.1002 599.367 63.9127 599.367 66.871ZM684.679 67.1835C684.679 61.3085 685.784 56.0169 687.992 51.3085C690.2 46.5585 693.242 42.5169 697.117 39.1835C701.034 35.8085 705.659 33.2252 710.992 31.4335C716.367 29.6002 722.179 28.6835 728.429 28.6835C731.096 28.6835 733.721 28.8502 736.304 29.1835C738.929 29.5169 741.429 29.9752 743.804 30.5585C746.221 31.1419 748.471 31.8502 750.554 32.6835C752.679 33.4752 754.554 34.3502 756.179 35.3085V0.0585327H774.679V103.746H756.179V96.8085C754.554 97.9335 752.638 98.996 750.429 99.996C748.221 100.996 745.846 101.871 743.304 102.621C740.763 103.371 738.117 103.954 735.367 104.371C732.659 104.829 729.971 105.059 727.304 105.059C721.054 105.059 715.304 104.142 710.054 102.309C704.846 100.475 700.367 97.8919 696.617 94.5585C692.867 91.2252 689.929 87.246 687.804 82.621C685.721 77.9544 684.679 72.8085 684.679 67.1835ZM704.117 67.1835C704.117 70.1419 704.7 72.9335 705.867 75.5585C707.075 78.1835 708.784 80.496 710.992 82.496C713.242 84.4544 715.929 86.0169 719.054 87.1835C722.221 88.3085 725.763 88.871 729.679 88.871C732.179 88.871 734.679 88.6419 737.179 88.1835C739.679 87.6835 742.075 86.996 744.367 86.121C746.7 85.246 748.867 84.1835 750.867 82.9335C752.909 81.6835 754.679 80.2877 756.179 78.746V53.1835C754.304 51.6835 752.325 50.4127 750.242 49.371C748.159 48.3294 746.034 47.4752 743.867 46.8085C741.7 46.1419 739.513 45.6627 737.304 45.371C735.096 45.0377 732.95 44.871 730.867 44.871C726.617 44.871 722.825 45.4544 719.492 46.621C716.2 47.746 713.409 49.3085 711.117 51.3085C708.867 53.3085 707.138 55.6627 705.929 58.371C704.721 61.0794 704.117 64.0169 704.117 67.1835ZM793.867 80.496C793.867 76.9544 794.638 73.7252 796.179 70.8085C797.721 67.8919 800.034 65.3919 803.117 63.3085C806.2 61.1835 810.034 59.5585 814.617 58.4335C819.242 57.2669 824.617 56.6835 830.742 56.6835C835.284 56.6835 840.054 57.0169 845.054 57.6835C850.096 58.3502 855.284 59.371 860.617 60.746C860.409 58.4127 859.7 56.2669 858.492 54.3085C857.284 52.3085 855.596 50.6002 853.429 49.1835C851.304 47.7252 848.721 46.6002 845.679 45.8085C842.679 45.0169 839.263 44.621 835.429 44.621C833.346 44.621 831.054 44.746 828.554 44.996C826.054 45.246 823.471 45.621 820.804 46.121C818.138 46.621 815.492 47.246 812.867 47.996C810.284 48.746 807.867 49.6419 805.617 50.6835L799.992 35.496C802.784 34.496 805.763 33.5794 808.929 32.746C812.138 31.9127 815.409 31.2044 818.742 30.621C822.075 29.996 825.409 29.5169 828.742 29.1835C832.075 28.8502 835.304 28.6835 838.429 28.6835C852.221 28.6835 862.471 32.2044 869.179 39.246C875.888 46.2877 879.242 57.0794 879.242 71.621V103.746H860.742V96.8085C858.825 97.9335 856.721 98.996 854.429 99.996C852.179 100.996 849.721 101.871 847.054 102.621C844.388 103.371 841.513 103.954 838.429 104.371C835.388 104.829 832.159 105.059 828.742 105.059C822.992 105.059 817.929 104.434 813.554 103.184C809.221 101.934 805.596 100.204 802.679 97.996C799.763 95.7877 797.554 93.2044 796.054 90.246C794.596 87.246 793.867 83.996 793.867 80.496ZM813.367 79.871C813.367 81.0794 813.679 82.246 814.304 83.371C814.929 84.4544 815.929 85.4335 817.304 86.3085C818.679 87.1419 820.429 87.8294 822.554 88.371C824.721 88.871 827.325 89.121 830.367 89.121C833.617 89.121 836.763 88.8294 839.804 88.246C842.846 87.6627 845.679 86.8919 848.304 85.9335C850.929 84.9752 853.304 83.871 855.429 82.621C857.554 81.371 859.325 80.0794 860.742 78.746V75.496C857.909 74.7044 855.096 74.0377 852.304 73.496C849.554 72.9544 846.909 72.5377 844.367 72.246C841.867 71.9127 839.492 71.6835 837.242 71.5585C835.034 71.4335 833.096 71.371 831.429 71.371C827.971 71.371 825.096 71.6002 822.804 72.0585C820.513 72.5169 818.659 73.1419 817.242 73.9335C815.825 74.6835 814.825 75.5794 814.242 76.621C813.659 77.6627 813.367 78.746 813.367 79.871Z" fill="url(#paint0_radial_1_32)"/>
<defs>
<radialGradient id="paint0_radial_1_32" cx="0" cy="0" r="1" gradientUnits="userSpaceOnUse" gradientTransform="translate(952 80.5) rotate(-175.077) scale(1002.2 240.026)">
<stop stop-color="#87ADFE"/>
<stop offset="0.371399" stop-color="#A559FA"/>
<stop offset="0.995" stop-color="#990053"/>
</radialGradient>
</defs>
</svg>
